<svg viewBox="0 0 235 96" fill="none" xmlns="http://www.w3.org/2000/svg">
                                <path d="M81.942 55.054c-.576 0-1.035-.171-1.377-.513-.324-.342-.486-.801-.486-1.377V38.611c.144-.036.369-.081.675-.135.324-.054.639-.081.945-.081.648 0 1.125.117 1.431.351.306.234.459.666.459 1.296v12.123h6.939c.09.144.18.342.27.594.09.234.135.495.135.783 0 .486-.117.864-.351 1.134-.216.252-.522.378-.918.378h-7.722zm25.139-6.453c0 1.044-.162 1.989-.486 2.835a6.017 6.017 0 01-1.323 2.133 5.915 5.915 0 01-2.079 1.377c-.81.306-1.719.459-2.727.459-1.008 0-1.917-.153-2.727-.459a6.107 6.107 0 01-2.08-1.35 6.344 6.344 0 01-1.35-2.133c-.305-.846-.458-1.8-.458-2.862 0-1.044.153-1.98.459-2.808.324-.846.774-1.557 1.35-2.133a5.877 5.877 0 012.106-1.35c.81-.324 1.71-.486 2.7-.486.99 0 1.89.162 2.7.486a5.62 5.62 0 012.079 1.35 5.794 5.794 0 011.35 2.16c.324.828.486 1.755.486 2.781zm-6.615-4.077c-.972 0-1.737.36-2.295 1.08-.558.702-.837 1.701-.837 2.997 0 1.314.27 2.322.81 3.024.558.702 1.332 1.053 2.322 1.053s1.755-.351 2.295-1.053c.558-.72.837-1.728.837-3.024s-.279-2.295-.837-2.997c-.558-.72-1.323-1.08-2.295-1.08zm18.989 9.369a6.48 6.48 0 01-1.269.459c-.468.126-1.017.189-1.647.189-.81 0-1.575-.108-2.295-.324a4.997 4.997 0 01-1.89-1.107c-.54-.504-.972-1.152-1.296-1.944-.306-.81-.459-1.791-.459-2.943 0-1.044.153-1.962.459-2.754.324-.81.774-1.485 1.35-2.025a5.827 5.827 0 012.106-1.215c.81-.27 1.71-.405 2.7-.405.936 0 1.791.117 2.565.351.792.234 1.422.504 1.89.81.324.216.576.459.756.729.198.27.297.612.297 1.026v10.422c0 .918-.171 1.71-.513 2.376a4.242 4.242 0 01-1.35 1.62 5.68 5.68 0 01-2.025.945 10.11 10.11 0 01-2.511.297c-.936 0-1.755-.09-2.457-.27-.684-.162-1.197-.351-1.539-.567-.594-.378-.891-.882-.891-1.512 0-.342.072-.639.216-.891.144-.252.315-.441.513-.567.468.288 1.035.54 1.701.756a6.873 6.873 0 002.133.324c1.08 0 1.926-.207 2.538-.621.612-.414.918-1.08.918-1.998v-1.161zm-2.349-1.998c.522 0 .963-.072 1.323-.216a4.11 4.11 0 00.972-.513v-6.102a4.572 4.572 0 00-.891-.378c-.324-.108-.72-.162-1.188-.162-.99 0-1.791.306-2.403.918-.594.594-.891 1.521-.891 2.781 0 .684.072 1.26.216 1.728.162.468.378.846.648 1.134.288.288.621.495.999.621s.783.189 1.215.189zm22.944-3.294c0 1.044-.162 1.989-.486 2.835a6.017 6.017 0 01-1.323 2.133 5.915 5.915 0 01-2.079 1.377c-.81.306-1.719.459-2.727.459-1.008 0-1.917-.153-2.727-.459a6.107 6.107 0 01-2.079-1.35 6.344 6.344 0 01-1.35-2.133c-.306-.846-.459-1.8-.459-2.862 0-1.044.153-1.98.459-2.808.324-.846.774-1.557 1.35-2.133a5.877 5.877 0 012.106-1.35c.81-.324 1.71-.486 2.7-.486.99 0 1.89.162 2.7.486a5.62 5.62 0 012.079 1.35 5.794 5.794 0 011.35 2.16c.324.828.486 1.755.486 2.781zm-6.615-4.077c-.972 0-1.737.36-2.295 1.08-.558.702-.837 1.701-.837 2.997 0 1.314.27 2.322.81 3.024.558.702 1.332 1.053 2.322 1.053s1.755-.351 2.295-1.053c.558-.72.837-1.728.837-3.024s-.279-2.295-.837-2.997c-.558-.72-1.323-1.08-2.295-1.08zm17.208-2.7c.864 0 1.665.144 2.403.432.756.27 1.413.693 1.971 1.269.558.558.99 1.26 1.296 2.106.324.828.486 1.809.486 2.943 0 1.134-.162 2.124-.486 2.97-.324.846-.783 1.557-1.377 2.133a5.684 5.684 0 01-2.16 1.296c-.828.288-1.755.432-2.781.432-1.044 0-1.953-.126-2.727-.378-.774-.252-1.413-.549-1.917-.891-.378-.252-.657-.522-.837-.81-.18-.306-.27-.666-.27-1.08V37.45c.144-.054.351-.099.621-.135.288-.054.603-.081.945-.081.63 0 1.098.117 1.404.351.306.234.459.648.459 1.242v3.699c.378-.198.81-.36 1.296-.486a6.083 6.083 0 011.674-.216zm-.594 2.7c-.486 0-.936.081-1.35.243a6.389 6.389 0 00-1.053.54v6.75c.234.144.549.288.945.432.396.126.855.189 1.377.189 1.008 0 1.818-.333 2.43-.999.612-.684.918-1.719.918-3.105 0-1.404-.306-2.43-.918-3.078-.594-.648-1.377-.972-2.349-.972zm14.318 10.449c-.162.036-.378.081-.648.135-.27.054-.576.081-.918.081-.63 0-1.098-.117-1.404-.351-.306-.234-.459-.648-.459-1.242v-8.559c0-.468.108-.864.324-1.188.216-.324.531-.612.945-.864.558-.342 1.242-.621 2.052-.837a10.56 10.56 0 012.673-.324c1.71 0 2.565.531 2.565 1.593 0 .252-.045.495-.135.729a2.538 2.538 0 01-.243.54c-.414-.09-.927-.135-1.539-.135-.63 0-1.224.072-1.782.216a6.26 6.26 0 00-1.431.54v9.666zm13.438-2.16a7.03 7.03 0 001.431-.135c.432-.108.747-.234.945-.378v-2.997l-2.619.243c-.72.072-1.269.234-1.647.486-.378.234-.567.612-.567 1.134 0 .522.189.927.567 1.215.396.288 1.026.432 1.89.432zm-.108-10.989c1.764 0 3.168.378 4.212 1.134 1.062.756 1.593 1.926 1.593 3.51v6.237c0 .432-.108.774-.324 1.026a3.367 3.367 0 01-.81.675c-.504.306-1.143.549-1.917.729-.774.18-1.656.27-2.646.27-1.8 0-3.222-.342-4.266-1.026-1.026-.702-1.539-1.746-1.539-3.132 0-1.206.378-2.124 1.134-2.754.774-.648 1.89-1.044 3.348-1.188l3.699-.378v-.486c0-.684-.252-1.188-.756-1.512-.486-.324-1.179-.486-2.079-.486a7.83 7.83 0 00-2.052.27 8.976 8.976 0 00-1.782.621 1.958 1.958 0 01-.513-.567 1.786 1.786 0 01-.189-.81c0-.36.081-.648.243-.864.18-.234.459-.441.837-.621a8.015 8.015 0 011.782-.486 12.63 12.63 0 012.025-.162zm18.994 4.941c0-.774-.225-1.341-.675-1.701-.432-.36-1.026-.54-1.782-.54a5.39 5.39 0 00-1.458.189c-.432.126-.81.288-1.134.486v9.774c-.162.036-.378.081-.648.135-.27.054-.576.081-.918.081-.63 0-1.098-.117-1.404-.351-.306-.234-.459-.648-.459-1.242v-8.667c0-.432.09-.783.27-1.053.18-.27.459-.531.837-.783.522-.36 1.215-.657 2.079-.891.864-.252 1.818-.378 2.862-.378 1.854 0 3.285.414 4.293 1.242 1.026.81 1.539 2.007 1.539 3.591v8.316a12.1 12.1 0 01-.648.135c-.27.054-.567.081-.891.081-.648 0-1.125-.117-1.431-.351-.288-.234-.432-.648-.432-1.242v-6.831zm20.044 5.751c0 .414-.09.747-.27.999-.18.252-.45.495-.81.729-.45.288-1.044.549-1.782.783-.738.252-1.593.378-2.565.378-2.16 0-3.879-.549-5.157-1.647-1.26-1.116-1.89-2.817-1.89-5.103 0-1.188.171-2.205.513-3.051.342-.864.801-1.575 1.377-2.133a5.67 5.67 0 012.079-1.242 7.899 7.899 0 012.565-.405c.486 0 .945.054 1.377.162.432.09.819.207 1.161.351V37.45c.144-.054.351-.099.621-.135.288-.054.594-.081.918-.081.648 0 1.116.117 1.404.351.306.234.459.648.459 1.242v13.689zm-3.402-7.425a4.149 4.149 0 00-2.106-.567c-1.008 0-1.845.324-2.511.972-.666.648-.999 1.71-.999 3.186 0 1.386.315 2.403.945 3.051.648.63 1.521.945 2.619.945.468 0 .864-.054 1.188-.162.342-.108.63-.234.864-.378v-7.047z" fill="#fff" />
                                <path d="M57.642 42.885h-12.59L34.034 72h12.59l11.017-29.115z" fill="#2196F3" />
                                <path d="M48.624 33.443h-12.59L25.018 62.557h12.59l11.016-29.114z" fill="#1E88E5" />
                                <path d="M39.607 24h-12.59L16 53.115h12.59L39.607 24z" fill="#1976D2" />
                            </svg>